<svg width="1280" height="800" fill="none" xmlns="http://www.w3.org/2000/svg">
<path d="M521.773 800C583.571 710.472 749.082 777.138 792.505 764.582C885.902 737.578 905.541 714.827 950.744 658.926C1016.96 577.033 930.627 495.141 984.272 464.174C1037.92 433.206 1089.89 526.797 1131.8 396.045C1173.71 265.293 1279.92 348.86 1281 268.734" stroke="#2A77F6"/>
<path d="M0 800C277.185 538.86 540.275 710.881 663.99 587.565C787.705 464.249 626.406 340.933 726.631 294.3C826.856 247.668 923.949 388.601 1002.25 191.71C1080.55 -5.18127 1213.66 161.658 1281 0" stroke="#BFDBFE"/>
<path d="M496.927 800C562.381 708.518 726.443 770.948 773.317 758.75C867.785 732.791 891.093 711.703 937.089 655.527C1006.05 571.663 916.14 487.798 972.004 456.085C1027.87 424.371 1081.99 520.216 1125.63 386.315C1169.27 252.413 1276.77 339.946 1281 255.937" stroke="#317CF6"/>
<path d="M472.081 800C541.192 706.563 703.804 764.758 754.128 752.917C849.667 728.003 876.645 708.579 923.434 652.129C995.129 566.292 901.653 480.455 959.735 447.995C1017.82 415.536 1074.08 513.636 1119.46 376.585C1164.84 239.534 1273.61 331.031 1281 243.14" stroke="#3881F7"/>
<path d="M447.234 800C520.002 704.609 681.164 758.568 734.94 747.085C831.549 723.216 862.197 705.455 909.779 648.731C984.212 560.921 887.167 473.112 947.466 439.906C1007.77 406.701 1066.18 507.055 1113.29 366.854C1160.4 226.654 1270.46 322.117 1281 230.343" stroke="#3F85F7"/>
<path d="M422.388 800C498.813 702.654 658.525 752.378 715.751 741.252C813.432 718.429 847.749 702.331 896.124 645.333C973.295 555.551 872.68 465.768 935.198 431.817C997.716 397.866 1058.28 500.474 1107.12 357.124C1155.96 213.774 1267.3 313.202 1281 217.546" stroke="#468AF8"/>
<path d="M397.542 800C477.623 700.7 635.886 746.188 696.563 735.419C795.314 713.642 833.301 699.207 882.469 641.935C962.378 550.18 858.193 458.425 922.929 423.728C987.665 389.03 1050.38 493.893 1100.95 347.394C1151.53 200.894 1264.15 304.288 1281 204.75" stroke="#4D8FF8"/>
<path d="M372.695 800C456.434 698.746 613.247 739.998 677.374 729.587C777.196 708.855 818.853 696.083 868.814 638.537C951.461 544.809 843.706 451.082 910.66 415.639C977.614 380.195 1042.48 487.313 1094.78 337.664C1147.09 188.015 1260.99 295.374 1281 191.953" stroke="#5594F8"/>
<path d="M347.849 800C435.245 696.791 590.608 733.808 658.186 723.754C759.079 704.067 804.405 692.959 855.159 635.139C940.544 539.439 829.22 443.738 898.392 407.549C967.564 371.36 1034.57 480.732 1088.62 327.933C1142.66 175.135 1257.84 286.459 1281 179.156" stroke="#5C98F9"/>
<path d="M323.002 800C414.055 694.837 567.969 727.619 638.997 717.922C740.961 699.28 789.957 689.835 841.504 631.74C929.627 534.068 814.733 436.395 886.123 399.46C957.513 362.525 1026.67 474.151 1082.45 318.203C1138.22 162.255 1254.68 277.545 1281 166.359" stroke="#639DF9"/>
<path d="M298.156 800C392.866 692.882 545.33 721.429 619.808 712.089C722.843 694.493 775.509 686.711 827.849 628.342C918.709 528.697 800.246 429.052 873.854 391.371C947.463 353.69 1018.77 467.57 1076.28 308.473C1133.78 149.375 1251.52 268.63 1281 153.562" stroke="#6AA2F9"/>
<path d="M273.31 800C371.676 690.928 522.691 715.239 600.62 706.257C704.726 689.706 761.061 683.587 814.195 624.944C907.793 523.326 785.76 421.709 861.586 383.282C937.412 344.855 1010.87 460.99 1070.11 298.743C1129.35 136.496 1248.37 259.716 1281 140.765" stroke="#71A7FA"/>
<path d="M248.463 800C350.487 688.974 500.052 709.049 581.431 700.424C686.608 684.919 746.613 680.463 800.54 621.546C896.875 517.956 771.273 414.365 849.317 375.192C927.362 336.02 1002.97 454.409 1063.94 289.012C1124.91 123.616 1245.21 250.802 1281 127.969" stroke="#78ABFA"/>
<path d="M223.617 800C329.297 687.019 477.413 702.859 562.243 694.592C668.49 680.131 732.165 677.339 786.885 618.148C885.959 512.585 756.786 407.022 837.049 367.103C917.311 327.184 995.065 447.828 1057.77 279.282C1120.48 110.736 1242.06 241.887 1281 115.172" stroke="#7FB0FB"/>
<path d="M198.771 800C308.108 685.065 454.774 696.669 543.054 688.759C650.373 675.344 717.717 674.215 773.23 614.75C875.042 507.214 742.3 399.679 824.78 359.014C907.26 318.349 987.163 441.247 1051.6 269.552C1116.04 97.8566 1238.9 232.973 1281 102.375" stroke="#86B5FB"/>
<path d="M173.924 800C286.918 683.111 432.135 690.479 523.866 682.926C632.255 670.557 703.269 671.091 759.575 611.352C864.124 501.844 727.813 392.336 812.511 350.925C897.21 309.514 979.261 434.666 1045.43 259.822C1111.6 84.9768 1235.75 224.059 1281 89.5779" stroke="#8DBAFB"/>
<path d="M149.078 800C265.729 681.156 409.496 684.29 504.677 677.094C614.137 665.77 688.821 667.967 745.92 607.954C853.207 496.473 713.326 384.992 800.243 342.836C887.159 300.679 971.36 428.086 1039.26 250.091C1107.17 72.0971 1232.59 215.144 1281 76.7811" stroke="#94BEFC"/>
<path d="M124.232 800C244.54 679.202 386.856 678.1 485.489 671.261C596.02 660.983 674.373 664.843 732.265 604.555C842.29 491.102 698.839 377.649 787.974 334.746C877.109 291.844 963.458 421.505 1033.09 240.361C1102.73 59.2174 1229.44 206.23 1281 63.9843" stroke="#9CC3FC"/>
<path d="M99.3853 800C223.35 677.248 364.217 671.91 466.3 665.429C577.902 656.195 659.925 661.719 718.61 601.157C831.373 485.731 684.353 370.306 775.705 326.657C867.058 283.009 955.556 414.924 1026.93 230.631C1098.29 46.3376 1226.28 197.315 1281 51.1874" stroke="#A3C8FC"/>
<path d="M74.5391 800C202.161 675.293 341.578 665.72 447.112 659.596C559.784 651.408 645.477 658.595 704.955 597.759C820.456 480.361 669.866 362.962 763.437 318.568C857.007 274.174 947.654 408.343 1020.76 220.901C1093.86 33.4579 1223.13 188.401 1281 38.3906" stroke="#AACDFD"/>
<path d="M49.6926 800C180.971 673.339 318.939 659.53 427.923 653.764C541.666 646.621 631.029 655.471 691.3 594.361C809.539 474.99 655.379 355.619 751.168 310.479C846.957 265.338 939.752 401.763 1014.59 211.17C1089.42 20.5782 1219.97 179.487 1281 25.5937" stroke="#B1D1FD"/>
<path d="M24.8464 800C159.782 671.384 296.3 653.34 408.735 647.931C523.549 641.834 616.581 652.347 677.645 590.963C798.622 469.619 640.893 348.276 738.899 302.39C836.906 256.503 931.851 395.182 1008.42 201.44C1084.99 7.69849 1216.82 170.572 1281 12.7969" stroke="#B8D6FE"/>
</svg>
