<svg width="433" height="393" viewBox="0 0 433 393" fill="none" xmlns="http://www.w3.org/2000/svg">
<path d="M432 -2C391.5 217.5 323.5 24 253.5 163.5C183.5 303 175.5 186.5 103.5 274C31.5 361.5 105.5 355.5 57 381C18.2 401.4 1.83333 389.5 -1.5 381" stroke="#981DD2"/>
<path d="M92 0C105.5 52.5 70.5 25 68.5 60C66.5 95 32 66 28 99C24 132 29.5 155 -1.5 167" stroke="#2A77F6"/>
<path d="M421.032 -1.93549C382.056 211.331 316.077 24.2742 248.099 159.405C180.121 294.536 172.081 181.855 102.371 267.097C32.629 352.903 103.129 346.161 56.0645 371.903C18.3871 392.71 2.72581 381.935 -1.5 374.097" stroke="#9520D4"/>
<path d="M410.065 -1.87097C372.613 205.161 308.653 24.5484 242.698 155.31C176.742 286.073 168.661 177.21 101.242 260.194C33.7581 344.306 100.758 336.823 55.129 362.806C18.5742 384.019 3.61828 374.371 -1.5 367.194" stroke="#9123D5"/>
<path d="M399.097 -1.80646C363.169 198.992 301.23 24.8226 237.296 151.216C173.363 277.609 165.242 172.565 100.113 253.29C34.8871 335.71 98.3871 327.484 54.1936 353.71C18.7613 375.329 4.51075 366.806 -1.5 360.29" stroke="#8E26D6"/>
<path d="M388.129 -1.74194C353.726 192.823 293.806 25.0968 231.895 147.121C169.984 269.145 161.823 167.919 98.9839 246.387C36.0161 327.113 96.0161 318.145 53.2581 344.613C18.9484 366.639 5.40323 359.242 -1.5 353.387" stroke="#8A29D7"/>
<path d="M377.161 -1.67743C344.282 186.653 286.383 25.371 226.494 143.026C166.605 260.681 158.403 163.274 97.8548 239.484C37.1452 318.516 93.6452 308.806 52.3226 335.516C19.1355 357.948 6.2957 351.677 -1.5 346.484" stroke="#872BD8"/>
<path d="M366.194 -1.61292C334.839 180.484 278.96 25.6451 221.093 138.931C163.226 252.218 154.984 158.629 96.7258 232.581C38.2742 309.919 91.2742 299.468 51.3871 326.419C19.3226 349.258 7.18817 344.113 -1.5 339.581" stroke="#832ED9"/>
<path d="M355.226 -1.5484C325.395 174.314 271.536 25.9193 215.692 134.837C159.847 243.754 151.565 153.984 95.5968 225.677C39.4032 301.323 88.9032 290.129 50.4516 317.323C19.5097 340.568 8.08065 336.548 -1.5 332.677" stroke="#7F31DA"/>
<path d="M344.258 -1.48389C315.952 168.145 264.113 26.1935 210.29 130.742C156.468 235.29 148.145 149.339 94.4677 218.774C40.5323 292.726 86.5323 280.79 49.5161 308.226C19.6968 331.877 8.97312 328.984 -1.5 325.774" stroke="#7C34DC"/>
<path d="M333.29 -1.41937C306.508 161.976 256.69 26.4677 204.889 126.647C153.089 226.827 144.726 144.694 93.3387 211.871C41.6613 284.129 84.1613 271.452 48.5806 299.129C19.8839 323.187 9.86559 321.419 -1.5 318.871" stroke="#7837DD"/>
<path d="M322.323 -1.35486C297.065 155.806 249.266 26.7419 199.488 122.552C149.71 218.363 141.306 140.048 92.2097 204.968C42.7903 275.532 81.7903 262.113 47.6452 290.032C20.071 314.497 10.7581 313.855 -1.5 311.968" stroke="#753ADE"/>
<path d="M311.355 -1.29034C287.621 149.637 241.843 27.0161 194.087 118.458C146.331 209.899 137.887 135.403 91.0806 198.064C43.9194 266.935 79.4194 252.774 46.7097 280.935C20.2581 305.806 11.6505 306.29 -1.5 305.064" stroke="#713DDF"/>
<path d="M300.387 -1.22583C278.177 143.468 234.419 27.2903 188.685 114.363C142.952 201.435 134.468 130.758 89.9516 191.161C45.0484 258.339 77.0484 243.435 45.7742 271.839C20.4452 297.116 12.543 298.726 -1.5 298.161" stroke="#6E40E0"/>
<path d="M289.419 -1.16132C268.734 137.298 226.996 27.5645 183.284 110.268C139.573 192.972 131.048 126.113 88.8226 184.258C46.1774 249.742 74.6774 234.097 44.8387 262.742C20.6323 288.426 13.4355 291.161 -1.5 291.258" stroke="#6A43E1"/>
<path d="M278.452 -1.0968C259.29 131.129 219.573 27.8387 177.883 106.173C136.194 184.508 127.629 121.468 87.6936 177.355C47.3065 241.145 72.3064 224.758 43.9032 253.645C20.8194 279.735 14.328 283.597 -1.5 284.355" stroke="#6646E2"/>
<path d="M267.484 -1.03229C249.847 124.96 212.149 28.1129 172.482 102.079C132.815 176.044 124.21 116.823 86.5645 170.452C48.4355 232.548 69.9355 215.419 42.9677 244.548C21.0065 271.045 15.2204 276.032 -1.5 277.452" stroke="#6349E4"/>
<path d="M256.516 -0.967712C240.403 118.79 204.726 28.3871 167.081 97.9839C129.435 167.581 120.79 112.177 85.4355 163.548C49.5645 223.952 67.5645 206.081 42.0323 235.452C21.1935 262.355 16.1129 268.468 -1.5 270.548" stroke="#5F4BE5"/>
<path d="M245.548 -0.903198C230.96 112.621 197.302 28.6613 161.679 93.8891C126.056 159.117 117.371 107.532 84.3064 156.645C50.6935 215.355 65.1936 196.742 41.0968 226.355C21.3806 253.665 17.0054 260.903 -1.5 263.645" stroke="#5C4EE6"/>
<path d="M234.581 -0.838684C221.516 106.452 189.879 28.9355 156.278 89.7944C122.677 150.653 113.952 102.887 83.1774 149.742C51.8226 206.758 62.8226 187.403 40.1613 217.258C21.5677 244.974 17.8979 253.339 -1.5 256.742" stroke="#5851E7"/>
<path d="M223.613 -0.77417C212.073 100.282 182.456 29.2097 150.877 85.6996C119.298 142.19 110.532 98.242 82.0484 142.839C52.9516 198.161 60.4516 178.065 39.2258 208.161C21.7548 236.284 18.7903 245.774 -1.5 249.839" stroke="#5554E8"/>
<path d="M212.645 -0.709656C202.629 94.1129 175.032 29.4839 145.476 81.6049C115.919 133.726 107.113 93.5968 80.9194 135.936C54.0806 189.565 58.0806 168.726 38.2903 199.065C21.9419 227.594 19.6828 238.21 -1.5 242.936" stroke="#5157E9"/>
<path d="M201.677 -0.645142C193.185 87.9436 167.609 29.7581 140.075 77.5101C112.54 125.262 103.694 88.9516 79.7903 129.032C55.2097 180.968 55.7097 159.387 37.3548 189.968C22.129 218.903 20.5753 230.645 -1.5 236.032" stroke="#4E5AEB"/>
<path d="M190.71 -0.580627C183.742 81.7742 160.185 30.0323 134.673 73.4153C109.161 116.798 100.274 84.3065 78.6613 122.129C56.3387 172.371 53.3387 150.048 36.4194 180.871C22.3161 210.213 21.4677 223.081 -1.5 229.129" stroke="#4A5DEC"/>
<path d="M179.742 -0.516113C174.298 75.6049 152.762 30.3065 129.272 69.3206C105.782 108.335 96.8548 79.6613 77.5323 115.226C57.4677 163.774 50.9677 140.71 35.4839 171.774C22.5032 201.523 22.3602 215.516 -1.5 222.226" stroke="#4660ED"/>
<path d="M168.774 -0.451599C164.855 69.4355 145.339 30.5807 123.871 65.2258C102.403 99.871 93.4355 75.0161 76.4032 108.323C58.5968 155.177 48.5968 131.371 34.5484 162.677C22.6903 192.832 23.2527 207.952 -1.5 215.323" stroke="#4363EE"/>
<path d="M157.806 -0.387085C155.411 63.2661 137.915 30.8549 118.47 61.1311C99.0242 91.4073 90.0161 70.371 75.2742 101.419C59.7258 146.581 46.2258 122.032 33.6129 153.581C22.8774 184.142 24.1452 200.387 -1.5 208.419" stroke="#3F66EF"/>
<path d="M146.839 -0.322571C145.968 57.0968 130.492 31.129 113.069 57.0363C95.6452 82.9436 86.5968 65.7258 74.1452 94.5161C60.8548 137.984 43.8548 112.694 32.6774 144.484C23.0645 175.452 25.0376 192.823 -1.5 201.516" stroke="#3C68F0"/>
<path d="M135.871 -0.258057C136.524 50.9274 123.069 31.4032 107.667 52.9415C92.2661 74.4798 83.1774 61.0806 73.0161 87.6129C61.9839 129.387 41.4839 103.355 31.7419 135.387C23.2516 166.761 25.9301 185.258 -1.5 194.613" stroke="#386BF1"/>
<path d="M124.903 -0.193542C127.081 44.7581 115.645 31.6774 102.266 48.8468C88.8871 66.0161 79.7581 56.4355 71.8871 80.7097C63.1129 120.79 39.1129 94.0161 30.8064 126.29C23.4387 158.071 26.8226 177.694 -1.5 187.71" stroke="#356EF3"/>
<path d="M113.935 -0.129028C117.637 38.5887 108.222 31.9516 96.8649 44.752C85.5081 57.5524 76.3387 51.7903 70.7581 73.8065C64.2419 112.194 36.7419 84.6774 29.871 117.194C23.6258 149.381 27.7151 170.129 -1.5 180.806" stroke="#3171F4"/>
<path d="M102.968 -0.0645142C108.194 32.4194 100.798 32.2258 91.4637 40.6573C82.129 49.0887 72.9194 47.1452 69.629 66.9032C65.371 103.597 34.371 75.3387 28.9355 108.097C23.8129 140.69 28.6075 162.565 -1.5 173.903" stroke="#2E74F5"/>
</svg>
