<svg width="218" height="322" fill="none" xmlns="http://www.w3.org/2000/svg">
<path d="M1 320C50 200.5 109 231.5 121.5 212C134 192.5 102 189.5 121.5 167C141 144.5 99.5 104 135.5 88.5C171.5 73 153.5 52.5 181.5 41C203.9 31.8 216.167 10.1667 219.5 0.5" stroke="#BAD5FF" stroke-width="0.5"/>
<path d="M157.5 321C176 241.5 202.5 299 194 247C185.5 195 162 200.5 184.5 167C202.5 140.2 215.333 118.5 219.5 111" stroke="#2A77F6" stroke-width="0.5"/>
<path d="M6.04834 320.032C53.7661 203.105 111.226 232.927 123.577 213.99C135.927 195.052 105.105 192.194 123.839 169.581C142.573 146.968 102.153 107.399 136.859 92.0988C171.564 76.7984 154.137 56.7339 181.597 45.0645C203.855 35.2968 216.14 13.6613 219.5 4.06451" stroke="#B5D2FF" stroke-width="0.5"/>
<path d="M11.0967 320.065C57.5322 205.71 113.452 234.355 125.653 215.98C137.855 197.605 108.21 194.887 126.177 172.161C144.145 149.435 104.806 110.798 138.218 95.6976C171.629 80.5968 154.774 60.9677 181.693 49.129C203.81 38.7935 216.113 17.1559 219.5 7.62903" stroke="#B1CFFE" stroke-width="0.5"/>
<path d="M16.1453 320.097C61.2985 208.315 115.678 235.782 127.73 217.97C139.782 200.157 111.315 197.581 128.516 174.742C145.718 151.903 107.46 114.198 139.577 99.2964C171.694 84.3952 155.411 65.2016 181.79 53.1935C203.765 42.2903 216.086 20.6505 219.5 11.1935" stroke="#ACCCFE" stroke-width="0.5"/>
<path d="M21.1936 320.129C65.0646 210.919 117.903 237.21 129.807 219.96C141.71 202.71 114.419 200.274 130.855 177.323C147.29 154.371 110.113 117.597 140.936 102.895C171.758 88.1935 156.048 69.4355 181.887 57.2581C203.719 45.7871 216.059 24.1452 219.5 14.7581" stroke="#A7C9FE" stroke-width="0.5"/>
<path d="M26.2419 320.161C68.8307 213.524 120.129 238.637 131.883 221.95C143.637 205.262 117.524 202.968 133.194 179.903C148.863 156.839 112.766 120.996 142.294 106.494C171.823 91.9919 156.685 73.6693 181.984 61.3226C203.674 49.2839 216.032 27.6398 219.5 18.3226" stroke="#A3C6FE" stroke-width="0.5"/>
<path d="M31.2903 320.194C72.5967 216.129 122.355 240.064 133.96 223.939C145.564 207.814 120.629 205.661 135.532 182.484C150.435 159.306 115.419 124.395 143.653 110.093C171.887 95.7903 157.323 77.9032 182.081 65.3871C203.629 52.7806 216.005 31.1344 219.5 21.8871" stroke="#9EC3FD" stroke-width="0.5"/>
<path d="M36.3386 320.226C76.3628 218.734 124.581 241.492 136.036 225.929C147.492 210.367 123.734 208.355 137.871 185.064C152.008 161.774 118.072 127.794 145.012 113.692C171.952 99.5887 157.96 82.1371 182.177 69.4516C203.584 56.2774 215.978 34.629 219.5 25.4516" stroke="#99C0FD" stroke-width="0.5"/>
<path d="M41.3872 320.258C80.1291 221.339 126.807 242.919 138.113 227.919C149.419 212.919 126.839 211.048 140.21 187.645C153.581 164.242 120.726 131.194 146.371 117.29C172.016 103.387 158.597 86.371 182.274 73.5161C203.539 59.7742 215.952 38.1236 219.5 29.0161" stroke="#95BDFD" stroke-width="0.5"/>
<path d="M46.4355 320.29C83.8952 223.944 129.032 244.347 140.19 229.909C151.347 215.472 129.944 213.742 142.548 190.226C155.153 166.71 123.379 134.593 147.73 120.889C172.081 107.185 159.234 90.6048 182.371 77.5806C203.494 63.271 215.925 41.6183 219.5 32.5806" stroke="#90BAFC" stroke-width="0.5"/>
<path d="M51.4839 320.323C87.6613 226.548 131.258 245.774 142.266 231.899C153.274 218.024 133.048 216.435 144.887 192.806C156.726 169.177 126.032 137.992 149.089 124.488C172.145 110.984 159.871 94.8387 182.468 81.6451C203.448 66.7677 215.898 45.1129 219.5 36.1451" stroke="#8CB7FC" stroke-width="0.5"/>
<path d="M56.5322 320.355C91.4274 229.153 133.484 247.202 144.343 233.889C155.202 220.577 136.153 219.129 147.226 195.387C158.298 171.645 128.685 141.391 150.448 128.087C172.21 114.782 160.508 99.0726 182.564 85.7097C203.403 70.2645 215.871 48.6075 219.5 39.7097" stroke="#87B4FC" stroke-width="0.5"/>
<path d="M61.5806 320.387C95.1935 231.758 135.71 248.629 146.419 235.879C157.129 223.129 139.258 221.823 149.564 197.968C159.871 174.113 131.339 144.79 151.806 131.685C172.274 118.581 161.145 103.306 182.661 89.7742C203.358 73.7613 215.844 52.1021 219.5 43.2742" stroke="#82B1FC" stroke-width="0.5"/>
<path d="M66.6289 320.419C98.9596 234.363 137.935 250.056 148.496 237.869C159.056 225.681 142.363 224.516 151.903 200.548C161.443 176.581 133.992 148.189 153.165 135.284C172.339 122.379 161.782 107.54 182.758 93.8387C203.313 77.258 215.817 55.5967 219.5 46.8387" stroke="#7EAEFB" stroke-width="0.5"/>
<path d="M71.6775 320.452C102.726 236.968 140.161 251.484 150.573 239.859C160.984 228.234 145.468 227.21 154.242 203.129C163.016 179.048 136.645 151.589 154.524 138.883C172.403 126.177 162.419 111.774 182.855 97.9032C203.268 80.7548 215.79 59.0914 219.5 50.4032" stroke="#79ABFB" stroke-width="0.5"/>
<path d="M76.7258 320.484C106.492 239.573 142.387 252.911 152.649 241.849C162.911 230.786 148.573 229.903 156.581 205.71C164.589 181.516 139.298 154.988 155.883 142.482C172.468 129.976 163.056 116.008 182.952 101.968C203.223 84.2516 215.763 62.586 219.5 53.9677" stroke="#74A8FB" stroke-width="0.5"/>
<path d="M81.7742 320.516C110.258 242.177 144.613 254.339 154.726 243.839C164.839 233.339 151.677 232.597 158.919 208.29C166.161 183.984 141.952 158.387 157.242 146.081C172.532 133.774 163.694 120.242 183.048 106.032C203.177 87.7484 215.737 66.0807 219.5 57.5323" stroke="#70A5FA" stroke-width="0.5"/>
<path d="M86.8225 320.548C114.024 244.782 146.839 255.766 156.802 245.829C166.766 235.891 154.782 235.29 161.258 210.871C167.734 186.452 144.605 161.786 158.601 149.679C172.597 137.573 164.331 124.476 183.145 110.097C203.132 91.2452 215.71 69.5753 219.5 61.0968" stroke="#6BA2FA" stroke-width="0.5"/>
<path d="M91.8711 320.581C117.79 247.387 149.065 257.194 158.879 247.819C168.694 238.444 157.887 237.984 163.597 213.452C169.307 188.919 147.258 165.186 159.96 153.278C172.661 141.371 164.968 128.71 183.242 114.161C203.087 94.742 215.683 73.0699 219.5 64.6613" stroke="#669FFA" stroke-width="0.5"/>
<path d="M96.9194 320.613C121.557 249.992 151.29 258.621 160.956 249.808C170.621 240.996 160.992 240.677 165.936 216.032C170.879 191.387 149.911 168.585 161.319 156.877C172.726 145.169 165.605 132.944 183.339 118.226C203.042 98.2387 215.656 76.5645 219.5 68.2258" stroke="#629CF9" stroke-width="0.5"/>
<path d="M101.968 320.645C125.323 252.597 153.516 260.048 163.032 251.798C172.548 243.548 164.097 243.371 168.274 218.613C172.452 193.855 152.565 171.984 162.677 160.476C172.79 148.968 166.242 137.177 183.436 122.29C202.997 101.736 215.629 80.0592 219.5 71.7903" stroke="#5D98F9" stroke-width="0.5"/>
<path d="M107.016 320.677C129.089 255.202 155.742 261.476 165.109 253.788C174.476 246.101 167.202 246.065 170.613 221.194C174.024 196.323 155.218 175.383 164.036 164.075C172.855 152.766 166.879 141.411 183.532 126.355C202.952 105.232 215.602 83.5538 219.5 75.3549" stroke="#5895F9" stroke-width="0.5"/>
<path d="M112.064 320.71C132.855 257.806 157.968 262.903 167.185 255.778C176.403 248.653 170.306 248.758 172.952 223.774C175.597 198.79 157.871 178.782 165.395 167.673C172.919 156.565 167.516 145.645 183.629 130.419C202.906 108.729 215.575 87.0484 219.5 78.9194" stroke="#5492F9" stroke-width="0.5"/>
<path d="M117.113 320.742C136.621 260.411 160.193 264.331 169.262 257.768C178.331 251.206 173.411 251.452 175.29 226.355C177.169 201.258 160.524 182.181 166.754 171.272C172.984 160.363 168.153 149.879 183.726 134.484C202.861 112.226 215.548 90.543 219.5 82.4839" stroke="#4F8FF8" stroke-width="0.5"/>
<path d="M122.161 320.774C140.387 263.016 162.419 265.758 171.339 259.758C180.258 253.758 176.516 254.145 177.629 228.936C178.742 203.726 163.178 185.581 168.113 174.871C173.048 164.161 168.79 154.113 183.823 138.548C202.816 115.723 215.522 94.0376 219.5 86.0484" stroke="#4B8CF8" stroke-width="0.5"/>
<path d="M127.21 320.806C144.153 265.621 164.645 267.186 173.415 261.748C182.186 256.311 179.621 256.839 179.968 231.516C180.315 206.194 165.831 188.98 169.472 178.47C173.113 167.96 169.427 158.347 183.919 142.613C202.771 119.219 215.495 97.5323 219.5 89.6129" stroke="#4689F8" stroke-width="0.5"/>
<path d="M132.258 320.839C147.919 268.226 166.871 268.613 175.492 263.738C184.113 258.863 182.726 259.532 182.306 234.097C181.887 208.661 168.484 192.379 170.831 182.069C173.177 171.758 170.065 162.581 184.016 146.677C202.726 122.716 215.468 101.027 219.5 93.1774" stroke="#4186F7" stroke-width="0.5"/>
<path d="M137.306 320.871C151.685 270.831 169.097 270.04 177.568 265.728C186.04 261.415 185.831 262.226 184.645 236.677C183.46 211.129 171.137 195.778 172.189 185.667C173.242 175.556 170.702 166.815 184.113 150.742C202.681 126.213 215.441 104.522 219.5 96.7419" stroke="#3D83F7" stroke-width="0.5"/>
<path d="M142.355 320.903C155.452 273.435 171.322 271.468 179.645 267.718C187.968 263.968 188.935 264.919 186.984 239.258C185.032 213.597 173.79 199.177 173.548 189.266C173.306 179.355 171.339 171.048 184.21 154.806C202.635 129.71 215.414 108.016 219.5 100.306" stroke="#3880F7" stroke-width="0.5"/>
<path d="M147.403 320.935C159.218 276.04 173.548 272.895 181.722 269.708C189.895 266.52 192.04 267.613 189.323 241.839C186.605 216.065 176.444 202.577 174.907 192.865C173.371 183.153 171.976 175.282 184.307 158.871C202.59 133.206 215.387 111.511 219.5 103.871" stroke="#337DF7" stroke-width="0.5"/>
<path d="M152.452 320.968C162.984 278.645 175.774 274.323 183.798 271.698C191.823 269.073 195.145 270.306 191.661 244.419C188.177 218.532 179.097 205.976 176.266 196.464C173.436 186.952 172.613 179.516 184.403 162.935C202.545 136.703 215.36 115.005 219.5 107.435" stroke="#2F7AF6" stroke-width="0.5"/>
</svg>
