<svg width="137" height="211" fill="none" xmlns="http://www.w3.org/2000/svg">
<path d="M33.4999 0C41.9999 33 27.4999 29 33.4999 37.5C39.4999 46 31.5 61 61 60C90.5 59 97 94 69.5 90.5C42 87 37 76 27.5 95.5C18 115 31.5 127 -0.5 135" stroke="#2A77F6" stroke-width="0.5"/>
<path d="M119.5 0C118 38.5 138 39.5 136.5 54C135 68.5 142 84.5 113.5 107.5C85 130.5 74 111 59 128.5C44 146 67.5 159 45.5 179C27.9 195 7.5 206.667 -0.5 210.5" stroke="#981DD2" stroke-width="0.5"/>
<path d="M116.726 0C115.548 38.3226 134.436 39.1613 133.178 53.4677C131.919 67.7742 138.435 83.7419 111.806 105.968C85.1774 128.194 74.7419 110.452 59.3387 127.274C43.9355 144.097 66.5161 156.323 44.9194 176.306C27.5806 192.419 8.27419 204.097 -0.5 208.065" stroke="#9520D4" stroke-width="0.5"/>
<path d="M113.952 0C113.097 38.1452 130.871 38.8226 129.855 52.9355C128.839 67.0484 134.871 82.9839 110.113 104.435C85.3548 125.887 75.4839 109.903 59.6774 126.048C43.871 142.194 65.5323 153.645 44.3387 173.613C27.2613 189.839 9.04839 201.527 -0.5 205.629" stroke="#9123D5" stroke-width="0.5"/>
<path d="M111.177 0C110.645 37.9677 127.307 38.4839 126.532 52.4032C125.758 66.3226 131.306 82.2258 108.419 102.903C85.5323 123.581 76.2258 109.355 60.0161 124.823C43.8065 140.29 64.5484 150.968 43.7581 170.919C26.9419 187.258 9.82258 198.957 -0.5 203.194" stroke="#8E26D6" stroke-width="0.5"/>
<path d="M108.403 0C108.194 37.7903 123.742 38.1452 123.21 51.871C122.677 65.5968 127.742 81.4677 106.726 101.371C85.7097 121.274 76.9677 108.806 60.3548 123.597C43.7419 138.387 63.5645 148.29 43.1774 168.226C26.6226 184.677 10.5968 196.387 -0.5 200.758" stroke="#8A29D7" stroke-width="0.5"/>
<path d="M105.629 0C105.742 37.6129 120.177 37.8065 119.887 51.3387C119.597 64.871 124.177 80.7097 105.032 99.8387C85.8871 118.968 77.7097 108.258 60.6936 122.371C43.6774 136.484 62.5806 145.613 42.5968 165.532C26.3032 182.097 11.371 193.817 -0.5 198.323" stroke="#872BD8" stroke-width="0.5"/>
<path d="M102.855 0C103.29 37.4355 116.613 37.4677 116.565 50.8064C116.516 64.1452 120.613 79.9516 103.339 98.3064C86.0645 116.661 78.4516 107.71 61.0323 121.145C43.6129 134.581 61.5968 142.935 42.0161 162.839C25.9839 179.516 12.1452 191.247 -0.5 195.887" stroke="#832ED9" stroke-width="0.5"/>
<path d="M100.081 0C100.839 37.2581 113.048 37.129 113.242 50.2742C113.436 63.4194 117.048 79.1935 101.645 96.7742C86.2419 114.355 79.1935 107.161 61.371 119.919C43.5484 132.677 60.6129 140.258 41.4355 160.145C25.6645 176.935 12.9194 188.677 -0.5 193.452" stroke="#7F31DA" stroke-width="0.5"/>
<path d="M97.3065 0C98.3871 37.0806 109.484 36.7903 109.919 49.7419C110.355 62.6935 113.484 78.4355 99.9516 95.2419C86.4194 112.048 79.9355 106.613 61.7097 118.694C43.4839 130.774 59.629 137.581 40.8548 157.452C25.3452 174.355 13.6935 186.108 -0.5 191.016" stroke="#7C34DC" stroke-width="0.5"/>
<path d="M94.5323 0C95.9355 36.9032 105.919 36.4516 106.597 49.2097C107.274 61.9677 109.919 77.6774 98.2581 93.7097C86.5968 109.742 80.6774 106.065 62.0484 117.468C43.4194 128.871 58.6452 134.903 40.2742 154.758C25.0258 171.774 14.4677 183.538 -0.5 188.581" stroke="#7837DD" stroke-width="0.5"/>
<path d="M91.7581 0C93.4839 36.7258 102.355 36.1129 103.274 48.6774C104.194 61.2419 106.355 76.9194 96.5645 92.1774C86.7742 107.435 81.4194 105.516 62.3871 116.242C43.3548 126.968 57.6613 132.226 39.6936 152.065C24.7065 169.194 15.2419 180.968 -0.5 186.145" stroke="#753ADE" stroke-width="0.5"/>
<path d="M88.9839 0C91.0323 36.5484 98.7904 35.7742 99.9516 48.1452C101.113 60.5161 102.79 76.1613 94.871 90.6452C86.9516 105.129 82.1613 104.968 62.7258 115.016C43.2903 125.065 56.6774 129.548 39.1129 149.371C24.3871 166.613 16.0161 178.398 -0.5 183.71" stroke="#713DDF" stroke-width="0.5"/>
<path d="M86.2097 0C88.5807 36.371 95.2258 35.4355 96.6291 47.6129C98.0323 59.7903 99.2258 75.4032 93.1774 89.1129C87.129 102.823 82.9032 104.419 63.0645 113.79C43.2258 123.161 55.6935 126.871 38.5323 146.677C24.0677 164.032 16.7903 175.828 -0.5 181.274" stroke="#6E40E0" stroke-width="0.5"/>
<path d="M83.4355 0C86.1291 36.1936 91.6613 35.0968 93.3065 47.0806C94.9516 59.0645 95.6613 74.6452 91.4839 87.5806C87.3065 100.516 83.6452 103.871 63.4032 112.565C43.1613 121.258 54.7097 124.194 37.9516 143.984C23.7484 161.452 17.5645 173.258 -0.5 178.839" stroke="#6A43E1" stroke-width="0.5"/>
<path d="M80.6613 0C83.6774 36.0161 88.0968 34.7581 89.9839 46.5484C91.871 58.3387 92.0968 73.8871 89.7903 86.0484C87.4839 98.2097 84.3871 103.323 63.7419 111.339C43.0968 119.355 53.7258 121.516 37.371 141.29C23.429 158.871 18.3387 170.688 -0.5 176.403" stroke="#6646E2" stroke-width="0.5"/>
<path d="M77.8871 0C81.2258 35.8387 84.5323 34.4194 86.6613 46.0161C88.7903 57.6129 88.5323 73.129 88.0968 84.5161C87.6613 95.9032 85.129 102.774 64.0806 110.113C43.0323 117.452 52.7419 118.839 36.7903 138.597C23.1097 156.29 19.1129 168.118 -0.5 173.968" stroke="#6349E4" stroke-width="0.5"/>
<path d="M75.1129 0C78.7742 35.6613 80.9677 34.0806 83.3387 45.4839C85.7097 56.8871 84.9677 72.371 86.4032 82.9839C87.8387 93.5968 85.871 102.226 64.4194 108.887C42.9677 115.548 51.7581 116.161 36.2097 135.903C22.7903 153.71 19.8871 165.548 -0.5 171.532" stroke="#5F4BE5" stroke-width="0.5"/>
<path d="M72.3387 0C76.3226 35.4839 77.4032 33.7419 80.0161 44.9516C82.629 56.1613 81.4032 71.6129 84.7097 81.4516C88.0161 91.2903 86.6129 101.677 64.7581 107.661C42.9032 113.645 50.7742 113.484 35.629 133.21C22.471 151.129 20.6613 162.978 -0.5 169.097" stroke="#5C4EE6" stroke-width="0.5"/>
<path d="M69.5645 0C73.871 35.3064 73.8387 33.4032 76.6935 44.4194C79.5484 55.4355 77.8387 70.8548 83.0161 79.9194C88.1935 88.9839 87.3548 101.129 65.0968 106.435C42.8387 111.742 49.7903 110.806 35.0484 130.516C22.1516 148.548 21.4355 160.409 -0.5 166.661" stroke="#5851E7" stroke-width="0.5"/>
<path d="M66.7903 0C71.4193 35.129 70.2742 33.0645 73.371 43.8871C76.4677 54.7097 74.2742 70.0968 81.3226 78.3871C88.371 86.6774 88.0968 100.581 65.4355 105.21C42.7742 109.839 48.8065 108.129 34.4677 127.823C21.8323 145.968 22.2097 157.839 -0.5 164.226" stroke="#5554E8" stroke-width="0.5"/>
<path d="M64.0161 0C68.9677 34.9516 66.7097 32.7258 70.0484 43.3548C73.3871 53.9839 70.7097 69.3387 79.629 76.8548C88.5484 84.371 88.8387 100.032 65.7742 103.984C42.7097 107.935 47.8226 105.452 33.8871 125.129C21.5129 143.387 22.9839 155.269 -0.5 161.79" stroke="#5157E9" stroke-width="0.5"/>
<path d="M61.2419 0C66.5161 34.7742 63.1451 32.3871 66.7258 42.8226C70.3064 53.2581 67.1452 68.5806 77.9355 75.3226C88.7258 82.0645 89.5806 99.4839 66.1129 102.758C42.6452 106.032 46.8387 102.774 33.3064 122.435C21.1935 140.806 23.7581 152.699 -0.5 159.355" stroke="#4E5AEB" stroke-width="0.5"/>
<path d="M58.4677 0C64.0645 34.5968 59.5806 32.0484 63.4032 42.2903C67.2258 52.5323 63.5806 67.8226 76.2419 73.7903C88.9032 79.7581 90.3226 98.9355 66.4516 101.532C42.5806 104.129 45.8548 100.097 32.7258 119.742C20.8742 138.226 24.5323 150.129 -0.5 156.919" stroke="#4A5DEC" stroke-width="0.5"/>
<path d="M55.6935 0C61.6129 34.4194 56.0161 31.7097 60.0806 41.7581C64.1451 51.8065 60.0161 67.0645 74.5484 72.2581C89.0806 77.4516 91.0645 98.3871 66.7903 100.306C42.5161 102.226 44.871 97.4194 32.1452 117.048C20.5548 135.645 25.3065 147.559 -0.5 154.484" stroke="#4660ED" stroke-width="0.5"/>
<path d="M52.9193 0C59.1613 34.2419 52.4516 31.371 56.758 41.2258C61.0645 51.0806 56.4516 66.3065 72.8548 70.7258C89.2581 75.1452 91.8065 97.8387 67.129 99.0806C42.4516 100.323 43.8871 94.7419 31.5645 114.355C20.2355 133.065 26.0806 144.989 -0.5 152.048" stroke="#4363EE" stroke-width="0.5"/>
<path d="M50.1451 0C56.7096 34.0645 48.8871 31.0323 53.4354 40.6936C57.9838 50.3548 52.8871 65.5484 71.1613 69.1936C89.4355 72.8387 92.5484 97.2903 67.4677 97.8548C42.3871 98.4194 42.9032 92.0645 30.9839 111.661C19.9161 130.484 26.8548 142.419 -0.5 149.613" stroke="#3F66EF" stroke-width="0.5"/>
<path d="M47.3709 0C54.258 33.8871 45.3225 30.6935 50.1129 40.1613C54.9032 49.629 49.3226 64.7903 69.4677 67.6613C89.6129 70.5323 93.2903 96.7419 67.8064 96.629C42.3226 96.5161 41.9194 89.3871 30.4032 108.968C19.5968 127.903 27.629 139.849 -0.5 147.177" stroke="#3C68F0" stroke-width="0.5"/>
<path d="M44.5967 0C51.8064 33.7097 41.758 30.3548 46.7903 39.629C51.8225 48.9032 45.7581 64.0323 67.7742 66.129C89.7903 68.2258 94.0323 96.1936 68.1452 95.4032C42.2581 94.6129 40.9355 86.7097 29.8226 106.274C19.2774 125.323 28.4032 137.28 -0.5 144.742" stroke="#386BF1" stroke-width="0.5"/>
<path d="M41.8225 0C49.3548 33.5323 38.1935 30.0161 43.4677 39.0968C48.7419 48.1774 42.1935 63.2742 66.0806 64.5968C89.9677 65.9194 94.7742 95.6452 68.4839 94.1774C42.1935 92.7097 39.9516 84.0323 29.2419 103.581C18.9581 122.742 29.1774 134.71 -0.5 142.306" stroke="#356EF3" stroke-width="0.5"/>
<path d="M39.0483 0C46.9032 33.3548 34.629 29.6774 40.1451 38.5645C45.6612 47.4516 38.629 62.5161 64.3871 63.0645C90.1452 63.6129 95.5161 95.0968 68.8226 92.9516C42.129 90.8065 38.9677 81.3548 28.6613 100.887C18.6387 120.161 29.9516 132.14 -0.5 139.871" stroke="#3171F4" stroke-width="0.5"/>
<path d="M36.2741 0C44.4515 33.1774 31.0644 29.3387 36.8225 38.0323C42.5806 46.7258 35.0645 61.7581 62.6936 61.5323C90.3226 61.3065 96.2581 94.5484 69.1613 91.7258C42.0645 88.9032 37.9839 78.6774 28.0806 98.1936C18.3194 117.581 30.7258 129.57 -0.5 137.435" stroke="#2E74F5" stroke-width="0.5"/>
</svg>
